# Blender v2.79 (sub 0) OBJ File: 'scene.blend'
# www.blender.org
mtllib track.mtl
o Cube
v 4.051050 -0.100000 -20.000000
v 4.051050 -0.100000 20.000000
v -4.051050 -0.100000 19.999996
v -4.051048 -0.100000 -20.000008
v 4.051052 0.100000 -19.999990
v 4.051047 0.100000 20.000011
v -4.051051 0.100000 19.999992
v -4.051049 0.100000 -20.000000
vt 0.006381 0.000000
vt 0.006381 -1.000000
vt -1.006381 -1.000000
vt -1.006381 0.000000
vt 0.006382 1.000000
vt -1.006381 1.000000
vt -1.006381 0.000000
vt 0.006381 -0.000000
vt 0.000000 0.000000
vt -0.000000 1.000000
vt -1.000000 1.000000
vt -1.000000 0.000000
vt 0.006381 0.000000
vt 0.006381 1.000000
vt -1.006381 1.000000
vt -1.006381 0.000000
vt 0.000000 0.000000
vt 0.000000 1.000000
vt 1.000000 1.000000
vt 1.000000 0.000000
vt 0.006382 0.000000
vt 0.006381 -1.000000
vt -1.006381 -1.000000
vt -1.006381 0.000000
vn 0.0000 -1.0000 -0.0000
vn 0.0000 1.0000 -0.0000
vn 1.0000 0.0000 0.0000
vn -0.0000 -0.0000 1.0000
vn -1.0000 -0.0000 -0.0000
vn 0.0000 0.0000 -1.0000
usemtl wood
s off
f 1/1/1 2/2/1 3/3/1 4/4/1
f 5/5/2 8/6/2 7/7/2 6/8/2
f 1/9/3 5/10/3 6/11/3 2/12/3
f 2/13/4 6/14/4 7/15/4 3/16/4
f 3/17/5 7/18/5 8/19/5 4/20/5
f 5/21/6 1/22/6 4/23/6 8/24/6
